<svg xmlns="http://www.w3.org/2000/svg" viewBox="-160 -120 320 240" width="320" height="240" aria-label="Ilustración central tipo flor/lotus para onboarding">
  <defs>
    <linearGradient id="goldGrad" x1="0" y1="0" x2="0" y2="1">
      <stop offset="0%" stop-color="#F7E7A6"/>
      <stop offset="100%" stop-color="#D4AF37"/>
    </linearGradient>
    <filter id="softShadow" x="-20%" y="-20%" width="140%" height="140%">
      <feDropShadow dx="0" dy="6" stdDeviation="10" flood-color="#6B4BE6" flood-opacity="0.18"/>
    </filter>
    <filter id="innerGlow" x="-50%" y="-50%" width="200%" height="200%">
      <feGaussianBlur stdDeviation="12" result="blur"/>
      <feComposite in="SourceGraphic" in2="blur" operator="over"/>
    </filter>
  </defs>

  <!-- halo -->
  <ellipse rx="140" ry="88" fill="#FFFFFF" opacity="0.7" filter="url(#innerGlow)"/>

  <!-- pétalos -->
  <g filter="url(#softShadow)">
    <path d="M0,-82 C22,-54 40,-30 40,-6 C40,22 22,40 0,40 C-22,40 -40,22 -40,-6 C-40,-30 -22,-54 0,-82 Z" fill="#6B4BE6" opacity="0.18"/>
    <path d="M0,-68 C16,-46 28,-26 28,-8 C28,12 14,28 0,28 C-14,28 -28,12 -28,-8 C-28,-26 -16,-46 0,-68 Z" fill="#8E71FF" opacity="0.28"/>
    <path d="M0,-52 C12,-36 20,-22 20,-8 C20,8 10,20 0,20 C-10,20 -20,8 -20,-8 C-20,-22 -12,-36 0,-52 Z" fill="#B7A4FF" opacity="0.45"/>

    <!-- hojas laterales -->
    <path d="M-70,-6 C-36,-28 -24,-14 -24,6 C-24,26 -40,40 -58,34 C-78,28 -86,2 -70,-6 Z" fill="#CFC7FF" opacity="0.8"/>
    <path d="M70,-6 C36,-28 24,-14 24,6 C24,26 40,40 58,34 C78,28 86,2 70,-6 Z" fill="#CFC7FF" opacity="0.8"/>

    <!-- detalle dorado -->
    <circle cx="0" cy="-10" r="6" fill="url(#goldGrad)"/>
  </g>

  <!-- base/sombra -->
  <ellipse cx="0" cy="58" rx="120" ry="16" fill="#D9D3FF" opacity="0.75"/>
</svg>
