<svg xmlns="http://www.w3.org/2000/svg" viewBox="-160 -120 320 240" width="320" height="240">
  <defs>
    <linearGradient id="goldGrad3" x1="0" y1="0" x2="0" y2="1">
      <stop offset="0%" stop-color="#F7E7A6"/>
      <stop offset="100%" stop-color="#D4AF37"/>
    </linearGradient>
    <filter id="softShadow3" x="-20%" y="-20%" width="140%" height="140%">
      <feDropShadow dx="0" dy="6" stdDeviation="10" flood-color="#6B4BE6" flood-opacity="0.18"/>
    </filter>
    <filter id="innerGlow3" x="-50%" y="-50%" width="200%" height="200%">
      <feGaussianBlur stdDeviation="12" result="blur"/>
      <feComposite in="SourceGraphic" in2="blur" operator="over"/>
    </filter>
  </defs>

  <!-- halo -->
  <ellipse rx="140" ry="88" fill="#FFFFFF" opacity="0.7" filter="url(#innerGlow3)"/>

  <!-- campana -->
  <g filter="url(#softShadow3)">
    <path d="M0,-40 C-26,-40 -42,-20 -42,6 L-42,16 L42,16 L42,6 C42,-20 26,-40 0,-40 Z" fill="#CFC7FF"/>
    <rect x="-42" y="16" width="84" height="8" rx="4" fill="#B7A4FF"/>
    <circle cx="0" cy="24" r="8" fill="url(#goldGrad3)"/>
    <!-- destellos -->
    <path d="M-64,-6 l-14,-6 l14,-6" fill="none" stroke="#9A7BFF" stroke-width="3" stroke-linecap="round" stroke-linejoin="round"/>
    <path d="M64,-6 l14,-6 l-14,-6" fill="none" stroke="#9A7BFF" stroke-width="3" stroke-linecap="round" stroke-linejoin="round"/>
  </g>

  <!-- base -->
  <ellipse cx="0" cy="70" rx="120" ry="16" fill="#D9D3FF" opacity="0.75"/>
</svg>
