<svg xmlns="http://www.w3.org/2000/svg" viewBox="-160 -120 320 240" width="320" height="240">
  <defs>
    <linearGradient id="goldGrad2" x1="0" y1="0" x2="0" y2="1">
      <stop offset="0%" stop-color="#F7E7A6"/>
      <stop offset="100%" stop-color="#D4AF37"/>
    </linearGradient>
    <filter id="softShadow2" x="-20%" y="-20%" width="140%" height="140%">
      <feDropShadow dx="0" dy="6" stdDeviation="10" flood-color="#6B4BE6" flood-opacity="0.18"/>
    </filter>
    <filter id="innerGlow2" x="-50%" y="-50%" width="200%" height="200%">
      <feGaussianBlur stdDeviation="12" result="blur"/>
      <feComposite in="SourceGraphic" in2="blur" operator="over"/>
    </filter>
  </defs>

  <!-- halo -->
  <ellipse rx="140" ry="88" fill="#FFFFFF" opacity="0.7" filter="url(#innerGlow2)"/>

  <!-- rueda -->
  <g filter="url(#softShadow2)">
    <circle r="56" fill="#E9E4FF"/>
    <circle r="42" fill="#FFFFFF"/>
    <!-- secciones -->
    <path d="M0,0 L0,-56 A56,56 0 0 1 48.5,-28.0 Z" fill="#CFC7FF"/>
    <path d="M0,0 L48.5,-28.0 A56,56 0 0 1 48.5,28.0 Z" fill="#B7A4FF"/>
    <path d="M0,0 L48.5,28.0 A56,56 0 0 1 0,56 Z" fill="#A896FF"/>
    <path d="M0,0 L0,56 A56,56 0 0 1 -48.5,28.0 Z" fill="#C9C4E8"/>
    <path d="M0,0 L-48.5,28.0 A56,56 0 0 1 -48.5,-28.0 Z" fill="#DCD6FF"/>
    <path d="M0,0 L-48.5,-28.0 A56,56 0 0 1 0,-56 Z" fill="#E6E1FF"/>
    <!-- icono engranaje -->
    <g transform="scale(0.9)">
      <circle r="14" fill="url(#goldGrad2)"/>
      <g fill="#6B4BE6" opacity="0.85">
        <rect x="-2" y="-22" width="4" height="8" rx="2"/>
        <rect x="-2" y="14" width="4" height="8" rx="2"/>
        <rect x="14" y="-2" width="8" height="4" rx="2"/>
        <rect x="-22" y="-2" width="8" height="4" rx="2"/>
        <rect x="9.9" y="-16.2" width="4" height="8" rx="2" transform="rotate(45)"/>
        <rect x="-13.9" y="8.0" width="4" height="8" rx="2" transform="rotate(45)"/>
        <rect x="-16.2" y="-13.9" width="8" height="4" rx="2" transform="rotate(45)"/>
        <rect x="8.0" y="9.9" width="8" height="4" rx="2" transform="rotate(45)"/>
      </g>
    </g>
  </g>

  <!-- base -->
  <ellipse cx="0" cy="78" rx="120" ry="16" fill="#D9D3FF" opacity="0.75"/>
</svg>
